<svg xmlns="http://www.w3.org/2000/svg" viewBox="0 0 64 64" fill="none">
  <defs>
    <linearGradient id="gold" x1="32" y1="6" x2="32" y2="54" gradientUnits="userSpaceOnUse">
      <stop stop-color="#FCE9A6"/>
      <stop offset=".45" stop-color="#E8B84B"/>
      <stop offset="1" stop-color="#A9772A"/>
    </linearGradient>
  </defs>
  <path d="M21 14c-9 0-13 4-13 10 0 6 5 10 12 10" stroke="url(#gold)" stroke-width="3.5" stroke-linecap="round"/>
  <path d="M43 14c9 0 13 4 13 10 0 6-5 10-12 10" stroke="url(#gold)" stroke-width="3.5" stroke-linecap="round"/>
  <path d="M19 9h26v11c0 9-6 16-13 16S19 29 19 20V9z" fill="url(#gold)"/>
  <path d="M30 35h4v7h-4z" fill="url(#gold)"/>
  <path d="M23 42h18l-2.5 7H25.5z" fill="url(#gold)"/>
  <rect x="20" y="49" width="24" height="5" rx="1.5" fill="url(#gold)"/>
</svg>
